<svg width="32" height="32" viewBox="0 0 32 32" fill="none" xmlns="http://www.w3.org/2000/svg">
<g clip-path="url(#clip0_2065_537)">
<rect x="1" y="1" width="30" height="30" rx="15" fill="#C2433D"/>
<rect x="1" y="1" width="30" height="30" rx="15" stroke="black" stroke-width="2"/>
<path d="M14.0977 7.61816C14.6964 5.77554 17.3036 5.77555 17.9023 7.61816L19.1963 11.6006H23.3838C25.3212 11.6006 26.1269 14.0799 24.5596 15.2188L21.1719 17.6807L22.4658 21.6631C23.0645 23.5057 20.9551 25.0382 19.3877 23.8994L16 21.4375L12.6123 23.8994C11.0449 25.0382 8.9355 23.5057 9.53418 21.6631L10.8281 17.6807L7.44043 15.2188C5.87311 14.0799 6.67881 11.6006 8.61621 11.6006H12.8037L14.0977 7.61816Z" fill="#FFD45E" stroke="black" stroke-width="2"/>
</g>
<defs>
<clipPath id="clip0_2065_537">
<rect width="32" height="32" fill="white"/>
</clipPath>
</defs>
</svg>
